{"title":"Taken 2 2012 TS Xvid UnKnOwN","uid":7710016,"size":975942826,"categoryP":"video","categoryS":"movies","magnet":"?xt=urn:btih:b40397215b849e7d42eced57054ba9b46b2b0c55&amp;dn=Taken+2+2012+TS+Xvid+UnKnOwN&amp;tr=udp%3A%2F%2Ftracker.openbittorrent.com%3A80&amp;tr=udp%3A%2F%2Fopen.demonii.com%3A1337&amp;tr=udp%3A%2F%2Ftracker.coppersurfer.tk%3A6969&amp;tr=udp%3A%2F%2Fexodus.desync.com%3A6969","seeders":1,"leechers":3,"uploader":"Gh0stNet","files":5,"time":1349741186,"description":"Plot : In Istanbul, retired CIA operative Bryan Mills and his wife are taken hostage by the father of a kidnapper Mills killed while rescuing his daughter.\n\n\n\nDirector:\nOlivier Megaton\n\nWriters:\nLuc Besson (screenplay), Robert Mark Kamen (screenplay)\n\nStars:\nLiam Neeson, Famke Janssen and Maggie Grace\n\nGenres:\nAction | Crime | Drama | Thriller\n\n\nCountry:\nFrance\n\nLanguage:\nEnglish\n\n\n\nFormat : AVI\nFormat/Info : Audio Video Interleave\nFile size : 917 MiB\nDuration : 1h 26mn\nOverall bit rate : 1 489 Kbps\n\nVideo\nID : 0\nFormat : MPEG-4 Visual\nFormat profile : Advanced Simple@L5\nFormat settings, BVOP : 2\nFormat settings, QPel : No\nFormat settings, GMC : No warppoints\nFormat settings, Matrix : Default (H.263)\nMuxing mode : Packed bitstream\nCodec ID : XVID\nCodec ID/Hint : XviD\nDuration : 1h 26mn\nBit rate : 1 286 Kbps\nWidth : 680 pixels\nHeight : 284 pixels\nDisplay aspect ratio : 2.40:1\nFrame rate : 25.000 fps\nColor space : YUV\nChroma subsampling : 4:2:0\nBit depth : 8 bits\nScan type : Progressive\nCompression mode : Lossy\nBits/(Pixel*Frame) : 0.266\nStream size : 792 MiB (86%)\nWriting library : XviD 64\n\nAudio\nID : 1\nFormat : AC-3\nFormat/Info : Audio Coding 3\nMode extension : CM (complete main)\nFormat settings, Endianness : Big\nCodec ID : 2000\nDuration : 1h 26mn\nSource duration : 1h 26mn\nBit rate mode : Constant\nBit rate : 192 Kbps\nChannel(s) : 2 channels\nChannel positions : Front: L R\nSampling rate : 48.0 KHz\nBit depth : 16 bits\nCompression mode : Lossy\nStream size : 118 MiB (13%)\nAlignment : Aligned on interleaves\nInterleave, duration : 32 ms (0.80 video frame)\n\n\nScreens :\n\n\n\n\n\n","torrent":{"xt":"urn:btih:b40397215b849e7d42eced57054ba9b46b2b0c55","amp;dn":"Taken+2+2012+TS+Xvid+UnKnOwN","amp;tr":["udp%3A%2F%2Ftracker.openbittorrent.com%3A80","udp%3A%2F%2Fopen.demonii.com%3A1337","udp%3A%2F%2Ftracker.coppersurfer.tk%3A6969","udp%3A%2F%2Fexodus.desync.com%3A6969"],"infoHash":"b40397215b849e7d42eced57054ba9b46b2b0c55","infoHashBuffer":{"type":"Buffer","data":[180,3,151,33,91,132,158,125,66,236,237,87,5,75,169,180,107,43,12,85]},"announce":[],"urlList":[]}}